<svg width="41" height="82" viewBox="0 0 41 82" fill="none" xmlns="http://www.w3.org/2000/svg">
<rect x="3" y="32" width="35" height="50" fill="#C1D2EF"/>
<path d="M20.5 3L38.2535 32.25H2.74648L20.5 3Z" fill="#C1D2EF"/>
<path d="M21.2005 24.2233L12.4131 6.31977L29.3864 6.03689L21.2005 24.2233Z" fill="#C1D2EF"/>
<path d="M30 6C30 7.65685 25.9706 9 21 9C16.0294 9 12 7.65685 12 6C12 4.34315 16.0294 3 21 3C25.9706 3 30 4.34315 30 6Z" fill="#BCC0C9"/>
<path d="M28 6C28 7.10457 24.6421 8 20.5 8C16.3579 8 13 7.10457 13 6C13 4.89543 16.3579 4 20.5 4C24.6421 4 28 4.89543 28 6Z" fill="#9CA0A9"/>
<rect x="7" y="32" width="27" height="44" fill="#FCFAF1"/>
<circle cx="20.4866" cy="57.4866" r="11" transform="rotate(39.5726 20.4866 57.4866)" fill="#F1E696"/>
<ellipse cx="23.8726" cy="55.7443" rx="9.5" ry="8.5" transform="rotate(39.5726 23.8726 55.7443)" fill="#FCFAF1"/>
<path d="M12.6387 40.3571H13.2815V41H12.6387V40.3571ZM12.6387 39.7143H13.2815V40.3571H12.6387V39.7143ZM12.6387 39.0714H13.2815V39.7143H12.6387V39.0714ZM12.6387 38.4286H13.2815V39.0714H12.6387V38.4286ZM12.6387 37.7857H13.2815V38.4286H12.6387V37.7857ZM12.6387 37.1429H13.2815V37.7857H12.6387V37.1429ZM13.2815 37.1429H13.9244V37.7857H13.2815V37.1429ZM13.2815 36.5H13.9244V37.1429H13.2815V36.5ZM13.2815 35.8571H13.9244V36.5H13.2815V35.8571ZM13.2815 35.2143H13.9244V35.8571H13.2815V35.2143ZM12.6387 35.2143H13.2815V35.8571H12.6387V35.2143ZM12.6387 34.5714H13.2815V35.2143H12.6387V34.5714ZM12.6387 35.8571H13.2815V36.5H12.6387V35.8571ZM12.6387 36.5H13.2815V37.1429H12.6387V36.5ZM13.2815 34.5714H13.9244V35.2143H13.2815V34.5714ZM13.2815 37.7857H13.9244V38.4286H13.2815V37.7857ZM13.2815 38.4286H13.9244V39.0714H13.2815V38.4286ZM13.2815 39.0714H13.9244V39.7143H13.2815V39.0714ZM13.2815 39.7143H13.9244V40.3571H13.2815V39.7143ZM13.2815 40.3571H13.9244V41H13.2815V40.3571ZM13.9244 35.8571H14.5672V36.5H13.9244V35.8571ZM13.9244 36.5H14.5672V37.1429H13.9244V36.5ZM14.5672 36.5H15.2101V37.1429H14.5672V36.5ZM14.5672 37.1429H15.2101V37.7857H14.5672V37.1429ZM15.2101 37.1429H15.853V37.7857H15.2101V37.1429ZM15.2101 37.7857H15.853V38.4286H15.2101V37.7857ZM15.853 37.1429H16.4958V37.7857H15.853V37.1429ZM15.853 36.5H16.4958V37.1429H15.853V36.5ZM16.4958 36.5H17.1387V37.1429H16.4958V36.5ZM16.4958 35.8571H17.1387V36.5H16.4958V35.8571ZM17.1387 34.5714H17.7815V35.2143H17.1387V34.5714ZM17.1387 35.2143H17.7815V35.8571H17.1387V35.2143ZM17.1387 35.8571H17.7815V36.5H17.1387V35.8571ZM17.1387 36.5H17.7815V37.1429H17.1387V36.5ZM17.1387 37.1429H17.7815V37.7857H17.1387V37.1429ZM17.1387 37.7857H17.7815V38.4286H17.1387V37.7857ZM17.1387 38.4286H17.7815V39.0714H17.1387V38.4286ZM17.1387 39.0714H17.7815V39.7143H17.1387V39.0714ZM17.1387 39.7143H17.7815V40.3571H17.1387V39.7143ZM17.1387 40.3571H17.7815V41H17.1387V40.3571ZM17.7815 40.3571H18.4244V41H17.7815V40.3571ZM17.7815 39.7143H18.4244V40.3571H17.7815V39.7143ZM17.7815 39.0714H18.4244V39.7143H17.7815V39.0714ZM17.7815 38.4286H18.4244V39.0714H17.7815V38.4286ZM17.7815 37.7857H18.4244V38.4286H17.7815V37.7857ZM17.7815 37.1429H18.4244V37.7857H17.7815V37.1429ZM17.7815 36.5H18.4244V37.1429H17.7815V36.5ZM17.7815 35.8571H18.4244V36.5H17.7815V35.8571ZM17.7815 35.2143H18.4244V35.8571H17.7815V35.2143ZM17.7815 34.5714H18.4244V35.2143H17.7815V34.5714ZM13.9244 35.2143H14.5672V35.8571H13.9244V35.2143ZM14.5672 35.8571H15.2101V36.5H14.5672V35.8571ZM15.2101 36.5H15.853V37.1429H15.2101V36.5ZM15.853 35.8571H16.4958V36.5H15.853V35.8571ZM16.4958 35.2143H17.1387V35.8571H16.4958V35.2143ZM19.0723 40.3571H19.7151V41H19.0723V40.3571ZM19.7151 40.3571H20.358V41H19.7151V40.3571ZM19.7151 39.7143H20.358V40.3571H19.7151V39.7143ZM19.7151 39.0714H20.358V39.7143H19.7151V39.0714ZM19.7151 38.4286H20.358V39.0714H19.7151V38.4286ZM19.7151 37.7857H20.358V38.4286H19.7151V37.7857ZM19.7151 37.1429H20.358V37.7857H19.7151V37.1429ZM19.0723 37.1429H19.7151V37.7857H19.0723V37.1429ZM19.0723 37.7857H19.7151V38.4286H19.0723V37.7857ZM19.0723 38.4286H19.7151V39.0714H19.0723V38.4286ZM19.0723 39.0714H19.7151V39.7143H19.0723V39.0714ZM19.0723 39.7143H19.7151V40.3571H19.0723V39.7143ZM19.0723 36.5H19.7151V37.1429H19.0723V36.5ZM19.7151 36.5H20.358V37.1429H19.7151V36.5ZM19.7151 35.8571H20.358V36.5H19.7151V35.8571ZM19.7151 35.2143H20.358V35.8571H19.7151V35.2143ZM19.7151 34.5714H20.358V35.2143H19.7151V34.5714ZM19.0723 34.5714H19.7151V35.2143H19.0723V34.5714ZM19.0723 35.2143H19.7151V35.8571H19.0723V35.2143ZM19.0723 35.8571H19.7151V36.5H19.0723V35.8571ZM21.0059 34.5714H21.6487V35.2143H21.0059V34.5714ZM21.6487 34.5714H22.2916V35.2143H21.6487V34.5714ZM21.6487 35.2143H22.2916V35.8571H21.6487V35.2143ZM21.6487 35.8571H22.2916V36.5H21.6487V35.8571ZM21.6487 36.5H22.2916V37.1429H21.6487V36.5ZM21.0059 36.5H21.6487V37.1429H21.0059V36.5ZM21.0059 35.8571H21.6487V36.5H21.0059V35.8571ZM21.0059 35.2143H21.6487V35.8571H21.0059V35.2143ZM21.0059 37.1429H21.6487V37.7857H21.0059V37.1429ZM21.0059 37.7857H21.6487V38.4286H21.0059V37.7857ZM21.0059 38.4286H21.6487V39.0714H21.0059V38.4286ZM21.6487 37.7857H22.2916V38.4286H21.6487V37.7857ZM21.6487 37.1429H22.2916V37.7857H21.6487V37.1429ZM21.6487 38.4286H22.2916V39.0714H21.6487V38.4286ZM21.6487 39.0714H22.2916V39.7143H21.6487V39.0714ZM21.0059 39.7143H21.6487V40.3571H21.0059V39.7143ZM21.0059 39.0714H21.6487V39.7143H21.0059V39.0714ZM21.0059 40.3571H21.6487V41H21.0059V40.3571ZM21.6487 40.3571H22.2916V41H21.6487V40.3571ZM21.6487 39.7143H22.2916V40.3571H21.6487V39.7143ZM22.2916 40.3571H22.9344V41H22.2916V40.3571ZM22.9344 40.3571H23.5773V41H22.9344V40.3571ZM23.5773 40.3571H24.2201V41H23.5773V40.3571ZM23.5773 39.7143H24.2201V40.3571H23.5773V39.7143ZM22.9344 39.7143H23.5773V40.3571H22.9344V39.7143ZM22.2916 39.7143H22.9344V40.3571H22.2916V39.7143ZM25.5042 34.5714H26.147V35.2143H25.5042V34.5714ZM24.8613 34.5714H25.5042V35.2143H24.8613V34.5714ZM24.8613 35.2143H25.5042V35.8571H24.8613V35.2143ZM24.8613 35.8571H25.5042V36.5H24.8613V35.8571ZM24.8613 36.5H25.5042V37.1429H24.8613V36.5ZM24.8613 37.1429H25.5042V37.7857H24.8613V37.1429ZM24.8613 37.7857H25.5042V38.4286H24.8613V37.7857ZM24.8613 38.4286H25.5042V39.0714H24.8613V38.4286ZM24.8613 39.0714H25.5042V39.7143H24.8613V39.0714ZM24.8613 39.7143H25.5042V40.3571H24.8613V39.7143ZM24.8613 40.3571H25.5042V41H24.8613V40.3571ZM25.5042 40.3571H26.147V41H25.5042V40.3571ZM25.5042 39.7143H26.147V40.3571H25.5042V39.7143ZM25.5042 39.0714H26.147V39.7143H25.5042V39.0714ZM25.5042 38.4286H26.147V39.0714H25.5042V38.4286ZM25.5042 37.7857H26.147V38.4286H25.5042V37.7857ZM25.5042 37.1429H26.147V37.7857H25.5042V37.1429ZM25.5042 36.5H26.147V37.1429H25.5042V36.5ZM25.5042 35.8571H26.147V36.5H25.5042V35.8571ZM25.5042 35.2143H26.147V35.8571H25.5042V35.2143ZM26.147 37.7857H26.7899V38.4286H26.147V37.7857ZM26.7899 37.7857H27.4328V38.4286H26.7899V37.7857ZM26.7899 37.1429H27.4328V37.7857H26.7899V37.1429ZM26.147 37.1429H26.7899V37.7857H26.147V37.1429ZM26.7899 36.5H27.4328V37.1429H26.7899V36.5ZM27.4328 36.5H28.0756V37.1429H27.4328V36.5ZM27.4328 35.8571H28.0756V36.5H27.4328V35.8571ZM27.4328 35.2143H28.0756V35.8571H27.4328V35.2143ZM27.4328 34.5714H28.0756V35.2143H27.4328V34.5714ZM28.0756 34.5714H28.7185V35.2143H28.0756V34.5714ZM28.0756 35.2143H28.7185V35.8571H28.0756V35.2143ZM28.0756 35.8571H28.7185V36.5H28.0756V35.8571ZM26.7899 38.4286H27.4328V39.0714H26.7899V38.4286ZM27.4328 38.4286H28.0756V39.0714H27.4328V38.4286ZM27.4328 39.0714H28.0756V39.7143H27.4328V39.0714ZM27.4328 39.7143H28.0756V40.3571H27.4328V39.7143ZM27.4328 40.3571H28.0756V41H27.4328V40.3571ZM28.0756 40.3571H28.7185V41H28.0756V40.3571ZM28.0756 39.7143H28.7185V40.3571H28.0756V39.7143ZM28.0756 39.0714H28.7185V39.7143H28.0756V39.0714ZM28.0756 38.4286H28.7185V39.0714H28.0756V38.4286ZM27.4328 37.7857H28.0756V38.4286H27.4328V37.7857Z" fill="#E75234"/>
</svg>
