<svg width="30" height="30" viewBox="0 0 30 30" fill="none" xmlns="http://www.w3.org/2000/svg">
<mask id="mask0_10_21" style="mask-type:luminance" maskUnits="userSpaceOnUse" x="0" y="0" width="30" height="30">
<path d="M30 0H0V30H30V0Z" fill="white"/>
</mask>
<g mask="url(#mask0_10_21)">
<path d="M15 2.70117C19.0078 2.70117 19.4824 2.71875 21.0586 2.78906C22.5234 2.85351 23.3144 3.09961 23.8418 3.30469C24.5391 3.57422 25.043 3.90234 25.5644 4.42383C26.0918 4.95118 26.4141 5.44922 26.6836 6.14649C26.8887 6.67381 27.1347 7.47069 27.1992 8.92969C27.2696 10.5117 27.2871 10.9863 27.2871 14.9883C27.2871 18.9961 27.2696 19.4707 27.1992 21.0469C27.1347 22.5117 26.8887 23.3028 26.6836 23.8301C26.4141 24.5274 26.0859 25.0312 25.5644 25.5527C25.0371 26.0801 24.5391 26.4024 23.8418 26.6719C23.3144 26.8769 22.5176 27.1231 21.0586 27.1875C19.4766 27.2578 19.0019 27.2754 15 27.2754C10.9922 27.2754 10.5176 27.2578 8.94144 27.1875C7.47656 27.1231 6.68556 26.8769 6.15821 26.6719C5.46094 26.4024 4.95703 26.0742 4.43555 25.5527C3.90821 25.0254 3.58594 24.5274 3.31641 23.8301C3.11133 23.3028 2.86524 22.5059 2.80078 21.0469C2.73047 19.4649 2.71289 18.9903 2.71289 14.9883C2.71289 10.9805 2.73047 10.5059 2.80078 8.92969C2.86524 7.46481 3.11133 6.67381 3.31641 6.14649C3.58594 5.44922 3.91406 4.94531 4.43555 4.42383C4.96289 3.89649 5.46094 3.57422 6.15821 3.30469C6.68556 3.09961 7.48244 2.85351 8.94144 2.78906C10.5176 2.71875 10.9922 2.70117 15 2.70117ZM15 0C10.9277 0 10.418 0.0175781 8.81837 0.0878906C7.22462 0.158203 6.12891 0.416016 5.17969 0.785156C4.18946 1.17188 3.35156 1.68164 2.51953 2.51953C1.68164 3.35156 1.17188 4.18946 0.785156 5.17383C0.416016 6.12891 0.158203 7.21875 0.0878906 8.8125C0.0175781 10.4179 0 10.9277 0 15C0 19.0723 0.0175781 19.5821 0.0878906 21.1816C0.158203 22.7754 0.416016 23.8711 0.785156 24.8203C1.17188 25.8106 1.68164 26.6484 2.51953 27.4805C3.35156 28.3125 4.18946 28.8281 5.17383 29.209C6.12891 29.5781 7.21875 29.8359 8.8125 29.9062C10.4121 29.9766 10.9219 29.9941 14.9941 29.9941C19.0664 29.9941 19.5762 29.9766 21.1758 29.9062C22.7696 29.8359 23.8652 29.5781 24.8144 29.209C25.7988 28.8281 26.6368 28.3125 27.4688 27.4805C28.3008 26.6484 28.8164 25.8106 29.1972 24.8262C29.5664 23.8711 29.8242 22.7813 29.8946 21.1875C29.9649 19.5879 29.9824 19.0781 29.9824 15.0059C29.9824 10.9336 29.9649 10.4238 29.8946 8.82425C29.8242 7.2305 29.5664 6.13477 29.1972 5.18555C28.8281 4.18945 28.3184 3.35156 27.4805 2.51953C26.6484 1.6875 25.8106 1.17188 24.8262 0.791012C23.8711 0.421875 22.7813 0.164063 21.1875 0.09375C19.5821 0.0175781 19.0723 0 15 0Z" fill="white"/>
<path d="M15 7.29495C10.7461 7.29495 7.29495 10.7461 7.29495 15C7.29495 19.2539 10.7461 22.7051 15 22.7051C19.2539 22.7051 22.7051 19.2539 22.7051 15C22.7051 10.7461 19.2539 7.29495 15 7.29495ZM15 19.9981C12.2403 19.9981 10.002 17.7598 10.002 15C10.002 12.2403 12.2403 10.002 15 10.002C17.7598 10.002 19.9981 12.2403 19.9981 15C19.9981 17.7598 17.7598 19.9981 15 19.9981Z" fill="white"/>
<path d="M24.8086 6.99024C24.8086 7.98636 24 8.78905 23.0098 8.78905C22.0137 8.78905 21.211 7.98049 21.211 6.99024C21.211 5.99414 22.0196 5.19141 23.0098 5.19141C24 5.19141 24.8086 6.00001 24.8086 6.99024Z" fill="white"/>
</g>
</svg>
