<svg width="30" height="30" viewBox="0 0 30 30" fill="none" xmlns="http://www.w3.org/2000/svg">
<mask id="path-1-inside-1_10_23" fill="white">
<path d="M28.625 7.9999L17.0003 0.844087C16.1721 0.344139 15.7341 1.00136e-05 15.0003 1.00136e-05C14.2664 1.00136e-05 13.8282 0.343897 13.0003 0.844087L1.37488 7.9999C0.625066 8.47901 -0.000124454 8.98391 -0.000124454 9.99993V28C-0.000124454 29.1001 0.899774 30 1.99988 30H27.9996C29.0997 30 29.9996 29.1001 29.9996 28L29.9999 9.99993C29.9999 8.98391 29.375 8.47901 28.625 7.9999ZM28 26.7393L19.485 18.9991L28 11.1904V26.7393ZM17.6157 18H12.3838L8.0218 13.9999H21.9789L17.6157 18ZM12.3868 20H17.6138L26.414 28H3.58684L12.3868 20ZM15 1.99997C15.908 2.48106 24.0942 7.5361 27.021 9.37619L24.1591 12.0002H5.84097L2.98001 9.37619C5.90595 7.53617 14.0917 2.48143 15 1.99997ZM10.5149 18.999L1.99989 26.7392V11.1902L10.5149 18.999Z"/>
</mask>
<path d="M28.625 7.9999L17.0003 0.844087C16.1721 0.344139 15.7341 1.00136e-05 15.0003 1.00136e-05C14.2664 1.00136e-05 13.8282 0.343897 13.0003 0.844087L1.37488 7.9999C0.625066 8.47901 -0.000124454 8.98391 -0.000124454 9.99993V28C-0.000124454 29.1001 0.899774 30 1.99988 30H27.9996C29.0997 30 29.9996 29.1001 29.9996 28L29.9999 9.99993C29.9999 8.98391 29.375 8.47901 28.625 7.9999ZM28 26.7393L19.485 18.9991L28 11.1904V26.7393ZM17.6157 18H12.3838L8.0218 13.9999H21.9789L17.6157 18ZM12.3868 20H17.6138L26.414 28H3.58684L12.3868 20ZM15 1.99997C15.908 2.48106 24.0942 7.5361 27.021 9.37619L24.1591 12.0002H5.84097L2.98001 9.37619C5.90595 7.53617 14.0917 2.48143 15 1.99997ZM10.5149 18.999L1.99989 26.7392V11.1902L10.5149 18.999Z" fill="white"/>
<path d="M28.625 7.9999L30.24 5.47171L30.2189 5.45825L30.1976 5.44514L28.625 7.9999ZM17.0003 0.844087L18.5729 -1.71068L18.5618 -1.7175L18.5507 -1.72423L17.0003 0.844087ZM13.0003 0.844087L11.449 -1.72369L11.4383 -1.71725L11.4277 -1.71072L13.0003 0.844087ZM1.37488 7.9999L-0.197693 5.4451L-0.219181 5.45833L-0.240444 5.47191L1.37488 7.9999ZM29.9996 28L26.9996 27.9999V28H29.9996ZM29.9999 9.99993L32.9999 9.99997V9.99993H29.9999ZM28 26.7393L25.9821 28.9592L31 33.5205V26.7393H28ZM19.485 18.9991L17.4574 16.7881L15.0357 19.0089L17.4671 21.219L19.485 18.9991ZM28 11.1904H31V4.36867L25.9724 8.97933L28 11.1904ZM17.6157 18V21H18.7828L19.6431 20.2113L17.6157 18ZM12.3838 18L10.3562 20.2111L11.2166 21H12.3838V18ZM8.0218 13.9999V10.9999H0.311627L5.9942 16.211L8.0218 13.9999ZM21.9789 13.9999L24.0062 16.2112L29.6905 10.9999H21.9789V13.9999ZM12.3868 20V17H11.227L10.3688 17.7802L12.3868 20ZM17.6138 20L19.6318 17.7802L18.7736 17H17.6138V20ZM26.414 28V31H34.1739L28.4319 25.7801L26.414 28ZM3.58684 28L1.56883 25.7802L-4.173 31H3.58684V28ZM15 1.99997L16.4044 -0.650991L14.9996 -1.39524L13.5949 -0.650668L15 1.99997ZM27.021 9.37619L29.0484 11.5874L31.9473 8.92966L28.6178 6.83642L27.021 9.37619ZM24.1591 12.0002V15.0002H25.3262L26.1865 14.2115L24.1591 12.0002ZM5.84097 12.0002L3.81318 14.2111L4.67354 15.0002H5.84097V12.0002ZM2.98001 9.37619L1.38296 6.83662L-1.94524 8.9296L0.952221 11.5871L2.98001 9.37619ZM10.5149 18.999L12.5328 21.2189L14.9642 19.0088L12.5425 16.788L10.5149 18.999ZM1.99989 26.7392H-1.00011V33.5204L4.0178 28.9591L1.99989 26.7392ZM1.99989 11.1902L4.02754 8.97921L-1.00011 4.36854V11.1902H1.99989ZM30.1976 5.44514L18.5729 -1.71068L15.4276 3.39885L27.0524 10.5547L30.1976 5.44514ZM18.5507 -1.72423C18.1086 -1.99111 16.7858 -2.99999 15.0003 -2.99999V3.00001C14.94 3.00001 14.8558 2.9918 14.7648 2.96862C14.6796 2.9469 14.6349 2.92371 14.6505 2.93132C14.6769 2.94419 14.7385 2.97698 14.885 3.06587C14.9567 3.10938 15.0319 3.15595 15.1298 3.21643C15.2234 3.27428 15.3321 3.34131 15.4499 3.4124L18.5507 -1.72423ZM15.0003 -2.99999C13.2146 -2.99999 11.893 -1.99195 11.449 -1.72369L14.5516 3.41186C14.6692 3.34082 14.7777 3.27381 14.8712 3.21602C14.9689 3.15563 15.0441 3.10906 15.1156 3.06564C15.2618 2.9769 15.3233 2.94418 15.3496 2.93139C15.365 2.92384 15.3204 2.947 15.2352 2.96869C15.1444 2.99183 15.0603 3.00001 15.0003 3.00001V-2.99999ZM11.4277 -1.71072L-0.197693 5.4451L2.94744 10.5547L14.5728 3.39889L11.4277 -1.71072ZM-0.240444 5.47191C-0.648433 5.73261 -1.35771 6.19976 -1.93812 6.92663C-2.59969 7.75513 -3.00012 8.7912 -3.00012 9.99993H2.99988C2.99988 10.0611 2.98912 10.1817 2.93576 10.3316C2.88243 10.4816 2.80936 10.5968 2.75051 10.6705C2.69799 10.7363 2.67024 10.7521 2.71204 10.7189C2.75717 10.6829 2.83687 10.6259 2.99019 10.5279L-0.240444 5.47191ZM-3.00012 9.99993V28H2.99988V9.99993H-3.00012ZM-3.00012 28C-3.00012 30.7569 -0.757108 33 1.99988 33V27C2.55666 27 2.99988 27.4433 2.99988 28H-3.00012ZM1.99988 33H27.9996V27H1.99988V33ZM27.9996 33C30.7566 33 32.9996 30.7569 32.9996 28H26.9996C26.9996 27.4433 27.4428 27 27.9996 27V33ZM32.9996 28L32.9999 9.99997L26.9999 9.99989L26.9996 27.9999L32.9996 28ZM32.9999 9.99993C32.9999 8.79161 32.5998 7.7556 31.9382 6.9269C31.3578 6.19981 30.6484 5.73259 30.24 5.47171L27.01 10.5281C27.1632 10.626 27.2429 10.683 27.2879 10.7188C27.3296 10.752 27.3017 10.7361 27.2492 10.6703C27.1903 10.5965 27.1172 10.4812 27.0639 10.3313C27.0106 10.1813 26.9999 10.0609 26.9999 9.99993H32.9999ZM30.0179 24.5194L21.5029 16.7792L17.4671 21.219L25.9821 28.9592L30.0179 24.5194ZM21.5127 21.2102L30.0277 13.4014L25.9724 8.97933L17.4574 16.7881L21.5127 21.2102ZM25 11.1904V26.7393H31V11.1904H25ZM17.6157 15H12.3838V21H17.6157V15ZM14.4115 15.7889L10.0494 11.7888L5.9942 16.211L10.3562 20.2111L14.4115 15.7889ZM8.0218 16.9999H21.9789V10.9999H8.0218V16.9999ZM19.9515 11.7886L15.5884 15.7887L19.6431 20.2113L24.0062 16.2112L19.9515 11.7886ZM12.3868 23H17.6138V17H12.3868V23ZM15.5958 22.2199L24.396 30.2198L28.4319 25.7801L19.6318 17.7802L15.5958 22.2199ZM26.414 25H3.58684V31H26.414V25ZM5.60486 30.2198L14.4048 22.2199L10.3688 17.7802L1.56883 25.7802L5.60486 30.2198ZM13.5955 4.65093C13.5934 4.6498 13.6051 4.65601 13.6359 4.67331C13.6648 4.68957 13.7029 4.71132 13.7512 4.73922C13.848 4.79515 13.973 4.8686 14.1258 4.95928C14.4309 5.1404 14.8277 5.37916 15.2947 5.6622C16.2276 6.22765 17.4212 6.95828 18.6815 7.73365C21.2035 9.28516 23.9726 11.0033 25.4243 11.916L28.6178 6.83642C25.7548 5.03646 17.4389 -0.102924 16.4044 -0.650991L13.5955 4.65093ZM24.9937 7.16493L22.1317 9.78894L26.1865 14.2115L29.0484 11.5874L24.9937 7.16493ZM24.1591 9.0002H5.84097V15.0002H24.1591V9.0002ZM7.86876 9.7893L5.0078 7.16529L0.952221 11.5871L3.81318 14.2111L7.86876 9.7893ZM4.57706 11.9158C6.02818 11.0032 8.79675 9.28527 11.3186 7.73378C12.5789 6.95843 13.7724 6.2278 14.7053 5.66231C15.1722 5.37926 15.5691 5.14046 15.8742 4.9593C16.027 4.8686 16.1521 4.79512 16.2489 4.73914C16.2972 4.71122 16.3354 4.68944 16.3644 4.67315C16.3952 4.65581 16.407 4.64954 16.405 4.6506L13.5949 -0.650668C12.5605 -0.102357 4.24583 5.03626 1.38296 6.83662L4.57706 11.9158ZM8.49696 16.7791L-0.0180255 24.5193L4.0178 28.9591L12.5328 21.2189L8.49696 16.7791ZM4.99989 26.7392V11.1902H-1.00011V26.7392H4.99989ZM-0.0277594 13.4013L8.48723 21.21L12.5425 16.788L4.02754 8.97921L-0.0277594 13.4013Z" fill="white" mask="url(#path-1-inside-1_10_23)"/>
</svg>
