{
	"asset":{
		"generator":"Khronos glTF Blender I/O v4.4.56",
		"version":"2.0"
	},
	"scene":0,
	"scenes":[
		{
			"name":"Scene",
			"nodes":[
				0
			]
		}
	],
	"nodes":[
		{
			"mesh":0,
			"name":"Cube",
			"translation":[
				0.5197935700416565,
				1.0907319784164429,
				-0.6253246665000916
			]
		}
	],
	"materials":[
		{
			"alphaMode":"BLEND",
			"doubleSided":true,
			"name":"Material",
			"pbrMetallicRoughness":{
				"baseColorTexture":{
					"index":0
				},
				"metallicFactor":0,
				"roughnessFactor":0.5
			}
		},
		{
			"doubleSided":true,
			"name":"Material.001",
			"pbrMetallicRoughness":{
				"baseColorTexture":{
					"index":1
				},
				"metallicFactor":0,
				"roughnessFactor":0.5
			}
		}
	],
	"meshes":[
		{
			"name":"Cube",
			"primitives":[
				{
					"attributes":{
						"POSITION":0,
						"NORMAL":1,
						"TEXCOORD_0":2
					},
					"indices":3,
					"material":0
				},
				{
					"attributes":{
						"POSITION":4,
						"NORMAL":5,
						"TEXCOORD_0":6
					},
					"indices":7,
					"material":1
				}
			]
		}
	],
	"textures":[
		{
			"sampler":0,
			"source":0
		},
		{
			"sampler":0,
			"source":1
		}
	],
	"images":[
		{
			"mimeType":"image/png",
			"name":"house-bottom-texture",
			"uri":"house-bottom-texture.png"
		},
		{
			"mimeType":"image/png",
			"name":"roof-texture",
			"uri":"roof-texture.png"
		}
	],
	"accessors":[
		{
			"bufferView":0,
			"componentType":5126,
			"count":89,
			"max":[
				1.1264172792434692,
				0.44491714239120483,
				1.0396804809570312
			],
			"min":[
				-1.1264172792434692,
				-1,
				-1.0453490018844604
			],
			"type":"VEC3"
		},
		{
			"bufferView":1,
			"componentType":5126,
			"count":89,
			"type":"VEC3"
		},
		{
			"bufferView":2,
			"componentType":5126,
			"count":89,
			"type":"VEC2"
		},
		{
			"bufferView":3,
			"componentType":5123,
			"count":180,
			"type":"SCALAR"
		},
		{
			"bufferView":4,
			"componentType":5126,
			"count":140,
			"max":[
				1.13151216506958,
				1.8436945676803589,
				1.0396804809570312
			],
			"min":[
				-1.13151216506958,
				-1,
				-1.0453490018844604
			],
			"type":"VEC3"
		},
		{
			"bufferView":5,
			"componentType":5126,
			"count":140,
			"type":"VEC3"
		},
		{
			"bufferView":6,
			"componentType":5126,
			"count":140,
			"type":"VEC2"
		},
		{
			"bufferView":7,
			"componentType":5123,
			"count":264,
			"type":"SCALAR"
		}
	],
	"bufferViews":[
		{
			"buffer":0,
			"byteLength":1068,
			"byteOffset":0,
			"target":34962
		},
		{
			"buffer":0,
			"byteLength":1068,
			"byteOffset":1068,
			"target":34962
		},
		{
			"buffer":0,
			"byteLength":712,
			"byteOffset":2136,
			"target":34962
		},
		{
			"buffer":0,
			"byteLength":360,
			"byteOffset":2848,
			"target":34963
		},
		{
			"buffer":0,
			"byteLength":1680,
			"byteOffset":3208,
			"target":34962
		},
		{
			"buffer":0,
			"byteLength":1680,
			"byteOffset":4888,
			"target":34962
		},
		{
			"buffer":0,
			"byteLength":1120,
			"byteOffset":6568,
			"target":34962
		},
		{
			"buffer":0,
			"byteLength":528,
			"byteOffset":7688,
			"target":34963
		}
	],
	"samplers":[
		{
			"magFilter":9729,
			"minFilter":9987
		}
	],
	"buffers":[
		{
			"byteLength":8216,
			"uri":"finalhouse2.bin"
		}
	]
}
