{
  "accessors": [
    {
      "bufferView": 0,
      "componentType": 5125,
      "count": 12540,
      "type": "SCALAR"
    },
    {
      "bufferView": 1,
      "componentType": 5126,
      "count": 3512,
      "max": [
        0.056049999660163496,
        0.06264999927263373,
        0.006218095877349936
      ],
      "min": [
        -0.05604999966016355,
        -0.06264999927263373,
        -0.006218095877349936
      ],
      "type": "VEC3"
    },
    {
      "bufferView": 2,
      "componentType": 5126,
      "count": 3512,
      "max": [
        1.0,
        1.0,
        1.0
      ],
      "min": [
        -1.0,
        -1.0,
        -1.0
      ],
      "type": "VEC3"
    },
    {
      "bufferView": 3,
      "componentType": 5126,
      "count": 3512,
      "max": [
        1.0,
        0.9502221947329893
      ],
      "min": [
        0.0,
        0.0
      ],
      "type": "VEC2"
    }
  ],
  "asset": {
    "generator": "Adobe Illustrator",
    "version": "2.0"
  },
  "bufferViews": [
    {
      "buffer": 0,
      "byteLength": 50160,
      "target": 34963
    },
    {
      "buffer": 0,
      "byteLength": 42144,
      "byteOffset": 50160,
      "target": 34962
    },
    {
      "buffer": 0,
      "byteLength": 42144,
      "byteOffset": 92304,
      "target": 34962
    },
    {
      "buffer": 0,
      "byteLength": 28096,
      "byteOffset": 134448,
      "target": 34962
    }
  ],
  "buffers": [
    {
      "byteLength": 162544,
      "uri": "data:application/octet-stream;base64,"
    }
  ],
  "materials": [
    {
      "doubleSided": true,
      "pbrMetallicRoughness": {
        "baseColorFactor": [
          0.64453125,
          0.73828125,
          0.9726561903953552,
          1.0
        ],
        "metallicFactor": 0.0,
        "roughnessFactor": 0.4000000059604645
      }
    }
  ],
  "meshes": [
    {
      "primitives": [
        {
          "attributes": {
            "NORMAL": 2,
            "POSITION": 1,
            "TEXCOORD_0": 3
          },
          "indices": 0,
          "material": 0,
          "mode": 4
        }
      ]
    }
  ],
  "nodes": [
    {
      "mesh": 0
    }
  ],
  "scenes": [
    {
      "nodes": [
        0
      ]
    }
  ]
}
