{
	"asset":{
		"generator":"Khronos glTF Blender I/O v4.4.56",
		"version":"2.0"
	},
	"scene":0,
	"scenes":[
		{
			"name":"Scene",
			"nodes":[
				0,
				1
			]
		}
	],
	"nodes":[
		{
			"mesh":0,
			"name":"Cube"
		},
		{
			"mesh":1,
			"name":"Cube.001",
			"rotation":[
				0,
				0,
				-1,
				0
			],
			"scale":[
				-1,
				-1,
				-1
			],
			"translation":[
				0,
				0,
				-14.430604934692383
			]
		}
	],
	"materials":[
		{
			"doubleSided":true,
			"name":"Material",
			"pbrMetallicRoughness":{
				"baseColorTexture":{
					"index":0
				},
				"metallicFactor":0,
				"roughnessFactor":0.5
			}
		}
	],
	"meshes":[
		{
			"name":"Cube",
			"primitives":[
				{
					"attributes":{
						"POSITION":0,
						"NORMAL":1,
						"TEXCOORD_0":2
					},
					"indices":3,
					"material":0
				}
			]
		},
		{
			"name":"Cube.001",
			"primitives":[
				{
					"attributes":{
						"POSITION":4,
						"NORMAL":5,
						"TEXCOORD_0":6
					},
					"indices":3,
					"material":0
				}
			]
		}
	],
	"textures":[
		{
			"sampler":0,
			"source":0
		}
	],
	"images":[
		{
			"mimeType":"image/png",
			"name":"dnot-froget-32x",
			"uri":"dnot-froget-32x.png"
		}
	],
	"accessors":[
		{
			"bufferView":0,
			"componentType":5126,
			"count":486,
			"max":[
				1,
				1.9754269123077393,
				7
			],
			"min":[
				0,
				-0.024573087692260742,
				-7.042809963226318
			],
			"type":"VEC3"
		},
		{
			"bufferView":1,
			"componentType":5126,
			"count":486,
			"type":"VEC3"
		},
		{
			"bufferView":2,
			"componentType":5126,
			"count":486,
			"type":"VEC2"
		},
		{
			"bufferView":3,
			"componentType":5123,
			"count":1002,
			"type":"SCALAR"
		},
		{
			"bufferView":4,
			"componentType":5126,
			"count":486,
			"max":[
				1,
				1.9754269123077393,
				7
			],
			"min":[
				0,
				-0.024573087692260742,
				-7.042809963226318
			],
			"type":"VEC3"
		},
		{
			"bufferView":5,
			"componentType":5126,
			"count":486,
			"type":"VEC3"
		},
		{
			"bufferView":6,
			"componentType":5126,
			"count":486,
			"type":"VEC2"
		}
	],
	"bufferViews":[
		{
			"buffer":0,
			"byteLength":5832,
			"byteOffset":0,
			"target":34962
		},
		{
			"buffer":0,
			"byteLength":5832,
			"byteOffset":5832,
			"target":34962
		},
		{
			"buffer":0,
			"byteLength":3888,
			"byteOffset":11664,
			"target":34962
		},
		{
			"buffer":0,
			"byteLength":2004,
			"byteOffset":15552,
			"target":34963
		},
		{
			"buffer":0,
			"byteLength":5832,
			"byteOffset":17556,
			"target":34962
		},
		{
			"buffer":0,
			"byteLength":5832,
			"byteOffset":23388,
			"target":34962
		},
		{
			"buffer":0,
			"byteLength":3888,
			"byteOffset":29220,
			"target":34962
		}
	],
	"samplers":[
		{
			"magFilter":9729,
			"minFilter":9987
		}
	],
	"buffers":[
		{
			"byteLength":33108,
			"uri":"train.bin"
		}
	]
}
